<svg viewBox="0 0 520 410" version="1.1" xmlns="http://www.w3.org/2000/svg" desc="Created with imagetracer.js version 1.2.6" ><path fill="rgb(222,177,60)" stroke="rgb(222,177,60)" stroke-width="1" opacity="1" d="M 145 46 L 208.5 46 L 210 47.5 L 208.5 50 L 202.5 50 L 197 52 L 193 60.5 L 193 190 Q 195.67 191.13 195 188.5 L 224 149.5 L 226 145.5 L 238 130.5 L 240 126.5 L 246 119.5 L 248 115.5 L 254 108.5 L 256 104.5 L 265 93.5 L 267 89.5 L 276 78.5 L 278 74.5 L 287 63.5 L 291 57.5 L 292 53.5 L 287.5 50 L 283 50 L 282 47.5 L 283.5 46 L 315.5 46 L 317 48.5 L 315.5 50 L 306.5 50 Q 306 51.5 303.5 51 Q 297.33 53.33 294 58.5 L 286 70.5 L 277 81.5 L 275 85.5 L 266 96.5 L 264 100.5 L 258 107.5 L 251 118.5 L 236 137.5 L 231 145.5 L 231 149.5 L 233 153.5 L 233 156.5 L 234 157.5 L 234 160.5 L 235 161.5 L 235 164.5 L 236 165.5 L 238 176.5 L 240 180.5 L 240 183.5 L 242 187.5 L 242 190.5 L 244 194.5 L 244 197.5 L 247 204.5 L 247 207.5 L 248 208.5 L 257 237.5 L 259 240.5 L 259 243.5 L 261 246.5 L 262 251.5 L 269 266.5 L 271 273.5 L 275 280.5 L 275 282.5 L 291 314.5 L 306 337.5 L 307 340.5 L 326 365.5 L 347.5 387 L 368.5 402 L 383 409.5 L 369.5 410 L 356.5 403 L 343.5 394 Q 328.55 382.45 316 368.5 L 296 343.5 L 284 325.5 L 263 286.5 L 263 284.5 L 254 266.5 L 254 264.5 L 250 256.5 L 250 254.5 L 248 251.5 L 246 243.5 L 244 240.5 L 244 238.5 L 234 210.5 L 234 207.5 L 230 197.5 L 229 190.5 L 225 179.5 L 225 176.5 L 224 175.5 L 224 172.5 L 222 167.5 L 222 163.5 L 221 161 Q 218.33 159.88 219 162.5 L 193 196.5 L 193 334.5 Q 194.5 335 194 337.5 L 198.5 342 Q 200 343.5 203.5 343 L 204.5 344 L 210 344 Q 210.38 346.96 209.5 347 L 172.5 347 L 172 348.5 L 166 361.5 L 166 363.5 L 161 371.5 L 152.5 381 L 144.5 387 L 134.5 392 L 131.5 392 L 123.5 395 L 118.5 395 L 117.5 396 L 107.5 396 Q 104.5 394.5 107.5 393 L 113.5 393 L 114.5 392 L 119.5 392 L 120.5 391 L 125.5 390 L 135.5 384 L 143 376.5 Q 144.5 372 148 369.5 L 153 359.5 L 153 357.5 L 158 344.5 L 158 340.5 L 159 339.5 Q 158 335.5 160 334.5 L 160 328.5 L 161 327.5 L 161 314.5 L 162 313.5 L 162 68 L 159.5 68 L 155.5 71 L 140.5 78 L 138.5 78 L 131.5 81 L 128.5 81 L 125.5 83 L 121.5 83 L 120.5 84 L 117.5 84 L 116.5 85 L 113.5 85 L 112.5 86 L 109.5 86 L 106.5 88 L 104.5 88 Q 97.64 90.64 93 95.5 L 89 101.5 L 89 103.5 L 87 106.5 L 87 108.5 L 85 112.5 L 85 115.5 L 81 125.5 L 81 128.5 L 79 132.5 L 79 135.5 L 77 139.5 L 77 142.5 L 76 143.5 L 76 146.5 L 75 147.5 L 75 150.5 L 73 155.5 L 72 165.5 L 70 170.5 L 69 184.5 L 68 185.5 L 68 191.5 L 67 192.5 L 67 229.5 L 68 230.5 L 69 243.5 L 70 244.5 L 70 249.5 L 71 250.5 L 71 255.5 L 72 256.5 L 72 260.5 L 73 261.5 Q 72 265.5 74 266.5 L 75 276.5 L 78 284.5 L 85.5 293 L 91.5 296 L 100 298.5 L 97.5 299 L 88.5 295 L 86.5 295 L 79 288.5 L 74 277.5 L 73 269.5 L 72 268.5 L 71 260.5 L 70 259.5 L 70 254.5 L 68 249.5 L 68 244.5 L 67 243.5 L 67 236.5 L 66 235.5 L 66 226.5 L 65 225.5 L 65 193.5 L 66 192.5 L 66 183.5 L 67 182.5 L 67 175.5 Q 69.25 174.25 68 169.5 L 69 168.5 L 69 164.5 L 70 163.5 L 70 159.5 L 72 154.5 L 72 150.5 L 73 149.5 L 75 138.5 L 77 134.5 L 77 131.5 L 81 121.5 L 81 118.5 L 82 117.5 L 86 103.5 L 89 97.5 L 92 94.5 L 92 93 L 93.5 93 L 99.5 88 L 103.5 87 L 106.5 85 Q 109 85.5 109.5 84 L 113.5 84 L 121.5 81 L 125.5 81 L 129.5 79 L 135.5 78 L 138.5 76 L 143.5 75 L 161 67 Q 160 63.63 162 62.5 L 161 61.5 Q 161.67 57.33 160 55.5 L 155.5 51 L 149.5 50 L 148.5 49 L 145 49 L 145 46 Z " /><path fill="rgb(222,177,60)" stroke="rgb(222,177,60)" stroke-width="1" opacity="1" d="M 104.5 164 L 111 177.5 L 111 179.5 L 113 181.5 L 113 183.5 L 118 193.5 L 118 195.5 L 123 204.5 L 123 206.5 L 125 209.5 L 125 211.5 L 128 216.5 L 129 221.5 L 132 227.5 L 132 230.5 L 133 231.5 L 133 234.5 L 135 239.5 L 135 259.5 L 134 260.5 L 134 263.5 L 133 264.5 L 133 267.5 L 132 268.5 L 131 273.5 L 120 293.5 L 108 308.5 L 79 338.5 L 64 358.5 L 56 376.5 Q 56.75 379.75 55 380.5 L 55 386.5 L 54 387.5 L 54 392.5 Q 56.25 393.75 55 398.5 L 54 398.5 Q 55 394.5 53 393.5 L 53 385.5 L 54 384.5 L 54 378.5 Q 55.75 377.75 55 374.5 L 62 358.5 L 74 341.5 L 107 306.5 L 118 292.5 L 129 272.5 L 131 264 L 123.5 261 L 120.5 261 L 114.5 258 L 108 251.5 L 106 246.5 L 106 242.5 L 105 241.5 L 105 227.5 L 106 226.5 L 106 219.5 Q 108 218.5 107 214.5 L 109 210.5 L 110 203.5 L 113.5 194 L 114 196.5 L 113 197.5 L 113 201.5 L 112 202.5 L 112 205.5 L 111 206.5 L 111 209.5 L 109 214.5 L 109 219.5 L 108 220.5 Q 109.25 225.25 107 226.5 L 107 241.5 Q 109 242.5 108 246.5 L 111 252.5 L 114.5 256 L 121.5 260 L 126.5 261 L 129.5 263 L 132 263 L 132 258.5 L 133 257.5 L 133 240.5 L 132 239.5 L 132 235.5 L 131 234.5 L 130 227.5 L 127 221.5 L 126 216.5 L 123 211.5 L 123 209.5 L 119 201.5 L 119 199.5 L 114 190.5 L 112 182.5 L 108 175.5 L 108 173.5 L 104 165.5 L 104.5 164 Z " /></svg>