<svg viewBox="0 0 555 530" version="1.1" xmlns="http://www.w3.org/2000/svg" ><path fill="rgb(222,177,60)" stroke="rgb(222,177,60)" stroke-width="1" opacity="1" d="M 150 36 L 213.5 36 L 215 37.5 L 213.5 40 L 207.5 40 L 202 42 L 198 50.5 L 198 180 Q 200.67 181.13 200 178.5 L 229 139.5 L 231 135.5 L 243 120.5 L 245 116.5 L 251 109.5 L 253 105.5 L 259 98.5 L 261 94.5 L 270 83.5 L 272 79.5 L 281 68.5 L 283 64.5 L 292 53.5 L 296 47.5 L 297 43.5 L 292.5 40 L 288 40 L 287 37.5 L 288.5 36 L 320.5 36 L 322 38.5 L 320.5 40 L 311.5 40 Q 311 41.5 308.5 41 Q 302.33 43.33 299 48.5 L 291 60.5 L 282 71.5 L 280 75.5 L 271 86.5 L 269 90.5 L 263 97.5 L 256 108.5 L 241 127.5 L 236 135.5 L 236 139.5 L 238 143.5 L 238 146.5 L 239 147.5 L 239 150.5 L 240 151.5 L 240 154.5 L 241 155.5 L 243 166.5 L 245 170.5 L 245 173.5 L 247 177.5 L 247 180.5 L 249 184.5 L 249 187.5 L 252 194.5 L 252 197.5 L 253 198.5 L 262 227.5 L 264 230.5 L 264 233.5 L 266 236.5 L 267 241.5 L 274 256.5 L 276 263.5 L 280 270.5 L 280 272.5 L 296 304.5 L 311 327.5 L 312 330.5 L 331 355.5 L 352.5 377 L 378.5 395 L 403.5 406 L 410.5 407 L 418.5 410 L 429.5 411 L 430.5 412 L 438.5 412 L 439.5 413 L 462.5 413 L 463.5 412 L 471.5 412 L 472.5 411 L 477.5 411 L 478.5 410 L 487.5 409 L 488.5 408 L 499.5 406 L 506.5 403 L 510 403 L 510 406 L 508.5 406 L 507.5 407 L 504.5 407 L 493.5 411 L 485.5 412 L 480.5 414 L 475.5 414 L 474.5 415 L 467.5 415 L 466.5 416 L 459.5 416 L 458.5 417 L 433.5 417 L 432.5 416 L 425.5 416 L 424.5 415 L 413.5 414 L 412.5 413 L 401.5 411 L 400.5 410 L 389.5 407 L 386.5 405 L 384.5 405 L 377.5 401 L 375.5 401 L 373.5 399 L 361.5 393 L 348.5 384 Q 333.55 372.45 321 358.5 L 301 333.5 L 289 315.5 L 268 276.5 L 268 274.5 L 259 256.5 L 259 254.5 L 255 246.5 L 255 244.5 L 253 241.5 L 251 233.5 L 249 230.5 L 249 228.5 L 239 200.5 L 239 197.5 L 235 187.5 L 234 180.5 L 230 169.5 L 230 166.5 L 229 165.5 L 229 162.5 L 227 157.5 L 227 153.5 L 226 151 Q 223.33 149.88 224 152.5 L 198 186.5 L 198 324.5 Q 199.5 325 199 327.5 L 203.5 332 Q 205 333.5 208.5 333 L 209.5 334 L 215 334 Q 215.38 336.96 214.5 337 L 177.5 337 L 177 338.5 L 171 351.5 L 171 353.5 L 166 361.5 L 157.5 371 L 149.5 377 L 139.5 382 L 136.5 382 L 128.5 385 L 123.5 385 L 122.5 386 L 112.5 386 Q 109.5 384.5 112.5 383 L 118.5 383 L 119.5 382 L 124.5 382 L 125.5 381 L 130.5 380 L 140.5 374 L 148 366.5 Q 149.5 362 153 359.5 L 158 349.5 L 158 347.5 L 163 334.5 L 163 330.5 L 164 329.5 Q 163 325.5 165 324.5 L 165 318.5 L 166 317.5 L 166 304.5 L 167 303.5 L 167 58 L 164.5 58 L 160.5 61 L 145.5 68 L 143.5 68 L 136.5 71 L 133.5 71 L 130.5 73 L 126.5 73 L 125.5 74 L 122.5 74 L 121.5 75 L 118.5 75 L 117.5 76 L 114.5 76 L 111.5 78 L 109.5 78 Q 102.64 80.64 98 85.5 L 94 91.5 L 94 93.5 L 92 96.5 L 92 98.5 L 90 102.5 L 90 105.5 L 86 115.5 L 86 118.5 L 84 122.5 L 84 125.5 L 82 129.5 L 82 132.5 L 81 133.5 L 81 136.5 L 80 137.5 L 80 140.5 L 78 145.5 L 77 155.5 L 75 160.5 L 74 174.5 L 73 175.5 L 73 181.5 L 72 182.5 L 72 219.5 L 73 220.5 L 74 233.5 L 75 234.5 L 75 239.5 L 76 240.5 L 76 245.5 L 77 246.5 L 77 250.5 L 78 251.5 Q 77 255.5 79 256.5 L 80 266.5 L 83 274.5 L 90.5 283 L 96.5 286 L 105 288.5 L 102.5 289 L 93.5 285 L 91.5 285 L 84 278.5 L 79 267.5 L 78 259.5 L 77 258.5 L 76 250.5 L 75 249.5 L 75 244.5 L 73 239.5 L 73 234.5 L 72 233.5 L 72 226.5 L 71 225.5 L 71 216.5 L 70 215.5 L 70 183.5 L 71 182.5 L 71 173.5 L 72 172.5 L 72 165.5 Q 74.25 164.25 73 159.5 L 74 158.5 L 74 154.5 L 75 153.5 L 75 149.5 L 77 144.5 L 77 140.5 L 78 139.5 L 80 128.5 L 82 124.5 L 82 121.5 L 86 111.5 L 86 108.5 L 87 107.5 L 91 93.5 L 94 87.5 L 97 84.5 L 97 83 L 98.5 83 L 104.5 78 L 108.5 77 L 111.5 75 Q 114 75.5 114.5 74 L 118.5 74 L 126.5 71 L 130.5 71 L 134.5 69 L 140.5 68 L 143.5 66 L 148.5 65 L 166 57 Q 165 53.62 167 52.5 L 166 51.5 Q 166.67 47.33 165 45.5 L 160.5 41 L 154.5 40 L 153.5 39 L 150 39 L 150 36 Z " /><path fill="rgb(222,177,60)" stroke="rgb(222,177,60)" stroke-width="1" opacity="1" d="M 109.5 154 L 116 167.5 L 116 169.5 L 118 171.5 L 118 173.5 L 123 183.5 L 123 185.5 L 128 194.5 L 128 196.5 L 130 199.5 L 130 201.5 L 133 206.5 L 134 211.5 L 137 217.5 L 137 220.5 L 138 221.5 L 138 224.5 L 140 229.5 L 140 249.5 L 139 250.5 L 139 253.5 L 138 254.5 L 138 257.5 L 137 258.5 L 136 263.5 L 125 283.5 L 113 298.5 L 84 328.5 L 69 348.5 L 61 366.5 Q 61.75 369.75 60 370.5 L 60 376.5 L 59 377.5 L 59 382.5 Q 61.25 383.75 60 388.5 L 59 388.5 Q 60 384.5 58 383.5 L 58 375.5 L 59 374.5 L 59 368.5 Q 60.75 367.75 60 364.5 L 67 348.5 L 79 331.5 L 112 296.5 L 123 282.5 L 134 262.5 L 136 254 L 128.5 251 L 125.5 251 L 119.5 248 L 113 241.5 L 111 236.5 L 111 232.5 L 110 231.5 L 110 217.5 L 111 216.5 L 111 209.5 Q 113 208.5 112 204.5 L 114 200.5 L 115 193.5 L 118.5 184 L 119 186.5 L 118 187.5 L 118 191.5 L 117 192.5 L 117 195.5 L 116 196.5 L 116 199.5 L 114 204.5 L 114 209.5 L 113 210.5 Q 114.25 215.25 112 216.5 L 112 231.5 Q 114 232.5 113 236.5 L 116 242.5 L 119.5 246 L 126.5 250 L 131.5 251 L 134.5 253 L 137 253 L 137 248.5 L 138 247.5 L 138 230.5 L 137 229.5 L 137 225.5 L 136 224.5 L 135 217.5 L 132 211.5 L 131 206.5 L 128 201.5 L 128 199.5 L 124 191.5 L 124 189.5 L 119 180.5 L 117 172.5 L 113 165.5 L 113 163.5 L 109 155.5 L 109.5 154 Z " /><path fill="rgb(222,177,60)" stroke="rgb(222,177,60)" stroke-width="1" opacity="1" d="M 64.5 445 L 82.5 445 Q 83.5 447 87.5 446 L 94.5 449 L 102 456.5 L 106 464.5 L 107 473.5 L 106 474.5 L 106 478.5 L 104 481.5 L 104 483.5 L 95.5 493 Q 92 493.5 90.5 496 Q 87.25 495.25 86.5 497 L 60.5 497 L 61 495.5 L 61 447.5 L 60 446.5 L 63.5 446 L 64.5 445 Z M 65 447 Q 66 450 64 451 Q 64 453 65 454 L 65 484 L 64 485 L 64 494 L 65 496 L 85 496 L 93 493 L 99 487 L 102 480 L 102 476 L 103 475 L 103 469 Q 101 467 102 464 L 98 455 Q 94 449 88 447 L 65 447 Z " /><path fill="rgb(222,177,60)" stroke="rgb(222,177,60)" stroke-width="1" opacity="1" d="M 118.5 445 L 131.5 445 Q 132.42 446.75 135 446 L 134.5 449 L 132.5 447 Q 128.5 448 127.5 446 L 126.5 447 L 117 447 L 117 455.5 L 118.5 456 L 127.5 463 L 132 464.5 L 128.5 465 L 117.5 457 L 117 457.5 L 117 486.5 Q 115.5 487 116 489.5 L 117 490.5 L 117 496 L 131.5 496 Q 132.5 493.5 135 494 L 133.5 497 L 112.5 497 L 112 496.5 L 114 493.5 L 114 457.5 Q 110 455.5 114 453.5 L 114 450.5 L 112 446.5 L 117.5 446 L 118.5 445 Z " /><path fill="rgb(222,177,60)" stroke="rgb(222,177,60)" stroke-width="1" opacity="1" d="M 149.5 445 Q 152.75 444.25 153.5 446 L 158.5 446 L 164 450.5 Q 166 453 165 458.5 L 160.5 465 L 155 468.5 L 158 479.5 L 164 492.5 Q 168.29 499.71 174.5 505 L 182.5 509 L 190.5 510 L 191.5 509 L 196.5 509 Q 197 507.5 199.5 508 Q 201 509 198.5 510 Q 194.5 509 193.5 511 L 184.5 511 L 174.5 507 L 167 500.5 L 162 493.5 L 156 481.5 L 154 473.5 L 151.5 470 L 150 470.5 L 161 461.5 Q 162.5 460 162 456.5 L 163 455.5 Q 161.25 454.75 162 451.5 L 158.5 448 Q 157 446.5 153.5 447 L 152.5 446 L 149.5 446 L 147 447 L 147 471.5 L 148 473.5 L 147 474.5 L 147 494.5 L 149 496.5 L 148.5 497 L 142 496.5 L 144 494.5 L 144 447.5 L 143.5 446 Q 148.25 447.25 149.5 445 Z " /><path fill="rgb(222,177,60)" stroke="rgb(222,177,60)" stroke-width="1" opacity="1" d="M 250.5 445 L 251 451.5 L 252 452.5 L 254 463.5 L 257 470.5 L 257 473.5 L 261 484.5 L 262 491.5 Q 263.5 492 263 494.5 L 265 496.5 L 259.5 497 L 260 495.5 L 260 492.5 L 259 491.5 L 259 488.5 L 255 477.5 L 255 474.5 L 252 466.5 L 251 459.5 L 249 455.5 L 249 452.5 L 247.5 451 L 246 451.5 L 247 447.5 L 246.5 446 Q 249.75 446.75 250.5 445 Z " /><path fill="rgb(222,177,60)" stroke="rgb(222,177,60)" stroke-width="1" opacity="1" d="M 294.5 445 L 298.5 445 L 299.5 446 L 303.5 446 Q 304 447.5 306.5 447 Q 314 450 318 456.5 L 320 459.5 L 320 462 L 318.5 462 L 314 457.5 L 312.5 455 L 307.5 451 L 301.5 448 Q 299 448.5 298.5 447 L 290.5 447 L 289.5 448 Q 286 447.5 284.5 449 L 276 456.5 L 273 462.5 L 272 470.5 Q 274 471.5 273 475.5 L 276 481.5 L 283.5 490 L 293.5 495 L 305.5 495 L 309.5 493 L 316.5 487 L 317 487.5 L 311.5 493 L 302.5 497 L 290.5 497 L 283.5 494 L 276 487.5 L 271 477.5 L 271 464.5 L 275 456.5 L 282.5 449 L 286.5 447 Q 289 447.5 289.5 446 L 293.5 446 L 294.5 445 Z " /><path fill="rgb(222,177,60)" stroke="rgb(222,177,60)" stroke-width="1" opacity="1" d="M 332.5 445 Q 335.75 446.75 332 448.5 L 332 494.5 L 333.5 496 L 347.5 496 L 349.5 494 L 350 497 L 327 496.5 L 329 494.5 L 329 448.5 L 328 446 Q 331.37 447 332.5 445 Z " /><path fill="rgb(222,177,60)" stroke="rgb(222,177,60)" stroke-width="1" opacity="1" d="M 418.5 445 L 419 446.5 L 418 447.5 L 418 465.5 L 417 466.5 L 417 473.5 L 418 474.5 L 418 494.5 L 419 497 L 413 496.5 L 415 494.5 L 415 448.5 L 413 446.5 L 413.5 446 Q 417.5 447 418.5 445 Z " /><path fill="rgb(222,177,60)" stroke="rgb(222,177,60)" stroke-width="1" opacity="1" d="M 450.5 445 L 454.5 445 L 455.5 446 L 459.5 446 Q 460 447.5 462.5 447 Q 469.56 450.44 474 456.5 L 476 460.5 L 474.5 462 L 463.5 451 L 454.5 447 L 445.5 447 L 437.5 451 L 432 456.5 L 428 465.5 L 428 472.5 L 429 473.5 L 430 478.5 L 434 484.5 L 440.5 491 L 448.5 495 L 461.5 495 L 471 488.5 L 474.5 483 L 475 484.5 L 468.5 492 L 458.5 497 L 447.5 497 L 439.5 494 L 431 486.5 L 427 477.5 Q 428 472 426 469.5 Q 428.25 468.25 427 463.5 L 430 457.5 L 438.5 449 L 442.5 447 Q 445 447.5 445.5 446 L 449.5 446 L 450.5 445 Z " /><path fill="rgb(222,177,60)" stroke="rgb(222,177,60)" stroke-width="1" opacity="1" d="M 183.5 446 L 189 446.5 Q 187.5 447 188 449.5 L 193 460.5 L 193 462.5 L 195 465.5 L 195 467.5 L 198 470.5 L 198 474.5 Q 199.5 475 199 477.5 L 202 482.5 L 202 484.5 L 206 492.5 L 206 495 Q 209 494 208 497 L 203 497 L 203 493.5 L 200 487.5 L 199 482.5 L 197 479.5 L 197 477 L 194.5 478 L 195 476.5 L 194 470.5 L 192 467.5 L 191 462.5 L 189 459.5 L 189 457.5 L 187 454.5 L 186 450 Q 183 451.25 184 447.5 L 183.5 446 Z " /><path fill="rgb(222,177,60)" stroke="rgb(222,177,60)" stroke-width="1" opacity="1" d="M 205.5 446 Q 212.25 443.75 210 450.5 L 212 453.5 L 212 455.5 L 214 458.5 L 214 460.5 L 216 463.5 L 216 465.5 L 218 468.5 L 220 475.5 L 223 480.5 L 226 490.5 L 230 496.5 L 224 497 L 225 494.5 L 208 451 L 205.5 452 L 205 450.5 Q 206.5 450 206 447.5 L 205.5 446 Z " /><path fill="rgb(222,177,60)" stroke="rgb(222,177,60)" stroke-width="1" opacity="1" d="M 358.5 446 L 364 446.5 L 363 447.5 L 363 494.5 L 365 496.5 L 364.5 497 L 358 496.5 L 360 494.5 L 360 448.5 L 358 446.5 L 358.5 446 Z " /><path fill="rgb(222,177,60)" stroke="rgb(222,177,60)" stroke-width="1" opacity="1" d="M 374.5 446 Q 379 445 380 447.5 L 399 486.5 L 402 489.5 L 402 496.5 Q 401 498 400 495.5 L 378 450 L 376 450.5 L 376 494.5 L 378 496.5 L 377.5 497 L 373 496.5 L 375 494.5 L 375 447.5 L 374.5 446 Z " /><path fill="rgb(222,177,60)" stroke="rgb(222,177,60)" stroke-width="1" opacity="1" d="M 400 446 L 404 446.5 L 402 448.5 L 402 486.5 L 401.5 487 L 401 486.5 L 401 448.5 L 400 446 Z " /><path fill="rgb(222,177,60)" stroke="rgb(222,177,60)" stroke-width="1" opacity="1" d="M 204.5 453 L 205 454.5 L 198.5 469 L 198 467.5 L 204.5 453 Z " /><path fill="rgb(222,177,60)" stroke="rgb(222,177,60)" stroke-width="1" opacity="1" d="M 181.5 455 L 182 457.5 L 179 462.5 L 179 464.5 L 177 467.5 L 175 474.5 L 172 479.5 Q 172.5 482 171 482.5 L 171 488.5 L 177.5 494 L 184.5 494 L 189 489.5 L 190 485.5 L 193.5 479 L 194 480.5 L 188 494 L 181.5 497 L 177.5 497 L 171 492.5 L 169 485.5 L 170 484.5 L 171 478.5 L 175 471.5 L 175 469.5 L 181.5 455 Z " /><path fill="rgb(222,177,60)" stroke="rgb(222,177,60)" stroke-width="1" opacity="1" d="M 244.5 456 L 245 459.5 L 242.5 466 L 242 463.5 L 243 462.5 L 244.5 456 Z " /><path fill="rgb(222,177,60)" stroke="rgb(222,177,60)" stroke-width="1" opacity="1" d="M 240.5 471 L 241 473.5 L 239 477.5 L 239 480.5 L 237 484.5 L 236 490.5 L 239.5 495 Q 245 496 246 492.5 L 250.5 483 L 251 484.5 L 247 493.5 L 243.5 497 L 238.5 497 L 236 496 L 235 493.5 L 235 488.5 L 236 487.5 L 237 480.5 L 240.5 471 Z " /></svg>